<svg width="146" height="275" viewBox="0 0 146 275" fill="none" xmlns="http://www.w3.org/2000/svg">
<g filter="url(#filter0_d_1221_2048)">
<path d="M71.8574 235.023C71.8574 235.023 92.556 240.321 104.143 235.97C115.73 231.618 136.314 213.859 140.66 219.25C145.007 224.641 138.842 243.743 114.591 252.126C90.3392 260.51 69.1204 239.737 69.1204 239.737L71.8574 235.023Z" fill="#F2F1EF"/>
<path d="M96.7813 202.222C91.3322 196.319 81.3116 200.86 81.3116 200.86C80.6254 201.335 79.1188 204.105 77.2081 208.13C75.9267 206.333 74.2953 205.19 72.2162 205.063C62.9369 204.496 37.4576 209.583 27.614 211.645C25.061 206.402 22.9958 202.623 22.171 202.052C22.171 202.052 12.8633 196.149 7.41458 202.052C1.96552 207.954 3.55481 225.208 8.54963 236.787C13.5441 248.365 16.9496 255.404 16.9496 255.404C16.9496 255.404 14.2253 258.128 14.6792 262.441C15.1334 266.755 27.6197 267.436 32.3873 265.392C33.6965 264.831 35.1936 263.857 36.6721 262.654C41.0078 264.827 46.3411 266.112 52.1129 266.112C57.8192 266.112 63.0958 264.855 67.4052 262.727C68.9218 263.976 70.4637 264.987 71.8075 265.563C76.5754 267.606 89.0621 266.924 89.516 262.611C89.9706 258.297 87.2459 255.573 87.2459 255.573C87.2459 255.573 90.6514 248.536 95.6459 236.958C100.641 225.379 102.23 208.124 96.7813 202.222Z" fill="#D3D0C8"/>
<path d="M24.924 165.301C24.924 165.301 16.7224 182.301 19.6741 200.463C21.6093 212.373 28.0737 225.662 50.3224 225.208C72.5711 224.754 82.3335 212.722 83.4689 196.603C84.6039 180.484 80.6027 163.003 80.6027 163.003C80.6027 163.003 76.4309 154.376 75.75 154.149C75.0685 153.922 32.3874 157.1 32.3874 157.1C32.3874 157.1 26.286 158.036 24.924 165.301Z" fill="#F2F1EF"/>
<path d="M51.2034 199.526C67.3073 197.967 67.2086 211.615 63.6331 217.404C60.0576 223.193 55.4601 225.577 55.4601 225.577L49.8411 225.407C49.8411 225.407 45.2438 224.385 41.3274 215.531C37.712 207.356 40.6466 200.547 51.2034 199.526Z" fill="#D3D0C8"/>
<path d="M49.2762 253.623L36.6594 254.485C34.7491 254.616 33.0772 253.211 32.8819 251.306C32.3671 246.282 31.189 236.719 29.1109 229.523C26.161 219.306 21.3906 209.772 22.9796 208.407C24.5685 207.047 41.4198 190.99 43.2368 193.715C46.2686 198.265 50.6791 226.57 51.1316 233.154C51.3774 236.682 52.1256 243.416 52.5791 249.82C52.7184 251.784 51.2402 253.489 49.2762 253.623Z" fill="#F2F1EF"/>
<path d="M52.5886 249.482C52.9826 252.563 53.1996 264.434 49.4958 265.222C45.7918 266.01 24.1997 269.162 21.8355 260.257C19.4713 251.352 32.3528 249.465 39.3665 249.225C46.2649 248.988 52.5886 249.482 52.5886 249.482Z" fill="#F2F1EF"/>
<path d="M79.1568 229.976C78.1293 237.422 77.2084 246.704 76.757 251.508C76.6031 253.144 75.0052 254.238 73.4224 253.793C69.1643 252.595 61.1191 250.702 53.7651 251.045C53.8578 245.733 54.2037 239.72 54.4103 234.518C54.7021 227.193 56.6801 199.928 59.4019 195.842C61.2185 193.117 80.0649 201.371 81.6538 202.732C83.2428 204.097 80.9737 216.808 79.1568 229.976Z" fill="#F2F1EF"/>
<path d="M53.7665 251.045C53.6397 253.838 52.7334 264.753 55.4517 265.501C59.103 266.507 80.7482 269.442 83.1124 260.537C85.4765 251.632 72.5955 249.745 65.5813 249.504C58.683 249.268 53.7665 251.045 53.7665 251.045Z" fill="#F2F1EF"/>
<path d="M81.6372 156.559C81.6372 156.559 81.1826 161.42 81.7066 165.125C82.2307 168.829 84.3911 172.532 84.3911 172.532C84.3911 172.532 72.738 185.34 49.7159 183.789C26.6945 182.237 19.5068 175.265 19.5068 175.265C19.5068 175.265 20.5852 170.555 21.1193 166.274C21.6533 161.993 22.2736 157.902 22.2736 157.902C22.2736 157.902 26.9104 166.263 49.966 166.582C74.2571 166.919 81.6372 156.559 81.6372 156.559Z" fill="#54B246"/>
<path d="M53.6377 179.902C58.3654 179.902 62.204 183.74 62.204 188.468C62.204 193.196 58.3654 197.035 53.6377 197.035C48.9099 197.035 45.0713 193.196 45.0713 188.468C45.0713 183.74 48.9099 179.902 53.6377 179.902Z" fill="#93CE44"/>
<path d="M49.0068 192.999H51.6749V187.959L55.1128 192.999H57.787V183.818H55.1128V188.898L51.656 183.818H49.0068V192.999Z" fill="#F2F2F2"/>
<path d="M51.4289 183.492C26.6739 183.695 19.5682 164.356 22.2 151.226C24.8281 138.094 27.8425 118.603 27.6629 108.845C27.4833 99.0839 32.408 79.9511 53.8807 81.4581C63.9919 82.1674 70.0672 88.9022 73.3256 98.8366C73.6819 99.9229 74.0025 101.05 74.2943 102.21C74.9238 104.662 75.398 107.246 75.7571 109.966C76.6342 116.78 77.1964 122.897 77.7351 128.404C77.8295 129.387 77.9236 130.353 78.0208 131.298C78.6329 137.364 79.3155 142.689 80.5019 147.473C82.9305 157.23 78.5004 183.289 51.4289 183.492Z" fill="#D3D0C8"/>
<path d="M51.4437 180.263C45.7225 180.263 41.0415 175.582 41.0415 169.861V138.918C41.0415 133.196 45.7225 128.515 51.4437 128.515C57.1649 128.515 61.8459 133.196 61.8459 138.918V169.861C61.8459 175.582 57.1649 180.263 51.4437 180.263Z" fill="#AF1C20"/>
<path d="M51.3806 152.283C50.2171 152.283 49.2651 153.235 49.2651 154.398V169.991C49.2651 171.155 50.2171 172.107 51.3806 172.107C52.5442 172.107 53.4961 171.155 53.4961 169.991V154.398C53.4961 153.235 52.5442 152.283 51.3806 152.283Z" fill="#860D0E"/>
<path d="M34.5187 63.5651C33.8011 64.9613 31.6375 66.6047 29.7957 66.2231C27.9541 65.8416 19.2534 58.7494 17.8779 41.6039C16.5031 24.4579 26.9445 0.0474453 36.7464 6.10702e-05C46.5486 -0.0473205 34.0901 27.4876 33.5803 42.637C33.0708 57.7865 35.389 61.8721 34.5187 63.5651Z" fill="#393032"/>
<path d="M65.0195 61.8897C65.1681 61.4009 73.0604 38.3516 78.4143 37.1307C83.7679 35.9098 86.2301 45.3775 93.6849 54.2268C101.14 63.076 107.267 64.5816 105.732 69.6323C104.198 74.6827 93.6457 74.8577 86.1079 70.9666C78.5704 67.0747 76.1164 59.9224 76.1164 59.9224L71.3667 65.5977L65.0195 61.8897Z" fill="#393032"/>
<path d="M51.4382 178.14C21.4764 178.385 12.8762 154.979 16.0612 139.086C19.2426 123.193 22.8908 99.6012 22.6735 87.791C22.4561 75.9773 28.4164 52.8201 54.4059 54.6442C66.6436 55.5028 73.9969 63.6541 77.9407 75.678C78.3718 76.9927 78.7601 78.3572 79.1128 79.7608C79.8752 82.7285 80.4488 85.8565 80.8835 89.1484C81.9451 97.3959 82.6256 104.799 83.2775 111.465C83.3915 112.655 83.5056 113.823 83.6231 114.967C84.3641 122.309 85.1907 128.754 86.6264 134.544C89.5656 146.354 84.2038 177.894 51.4382 178.14Z" fill="#F2F1EF"/>
<path d="M86.6841 128.363C83.2416 129.558 79.2367 129.934 76.183 128.338C68.8058 124.479 66.0989 129.615 60.3095 134.637C54.5527 139.695 39.4891 128.496 44.6256 119.999C49.7257 111.498 45.5931 110.072 43.0428 106.366C40.4929 102.654 43.6627 91.8016 47.023 91.1858C50.3828 90.5287 47.4854 84.929 55.478 82.7263C63.4751 80.5649 69.4588 84.7724 74.2485 83.652C76.1541 83.2181 78.1911 82.9164 80.0925 82.7883C80.5926 84.3132 81.043 85.896 81.4522 87.5243C82.3361 90.9668 83.0019 94.5953 83.5061 98.4139C84.7376 107.981 85.5266 116.569 86.2828 124.301C86.4155 125.681 86.5477 127.037 86.6841 128.363Z" fill="#D3D0C8"/>
<path d="M74.2243 148.964C74.3358 150.458 72.1889 153.486 69.0267 156.67C66.1388 159.593 62.3917 162.628 58.7229 164.744C55.809 166.426 52.9571 167.523 50.6232 167.519C48.2091 167.509 45.3533 166.411 42.5054 164.705C39.129 162.705 35.7673 159.835 33.2183 156.954C30.3076 153.693 28.4354 150.413 28.6766 148.291C29.1779 143.935 40.0414 144.241 50.3378 143.733C60.6349 143.24 73.93 145.031 74.2243 148.964Z" fill="#393032"/>
<path d="M60.3825 66.1606C58.9407 69.0431 62.3224 70.0403 64.8166 72.6734C67.3108 75.3062 67.3108 77.385 69.2513 76.5538C71.1908 75.722 70.6365 71.5644 68.6963 68.7933C66.7564 66.0216 61.6294 63.666 60.3825 66.1606Z" fill="#393032"/>
<path d="M41.9609 66.6141C43.4024 69.497 40.0211 70.4942 37.5269 73.127C35.0323 75.7598 35.0323 77.8389 33.0921 77.0074C31.1526 76.1759 31.7066 72.0186 33.6468 69.2476C35.5867 66.4759 40.714 64.1199 41.9609 66.6141Z" fill="#393032"/>
<path d="M61.4906 88.4687C66.5153 88.8709 66.2581 104.134 61.7175 103.679C57.1769 103.226 55.8149 88.0148 61.4906 88.4687Z" fill="#393032"/>
<path d="M37.8792 88.2417C43.1793 88.2417 43.1009 104.361 37.8792 104.588C32.6578 104.815 32.2035 88.2417 37.8792 88.2417Z" fill="#393032"/>
</g>
<defs>
<filter id="filter0_d_1221_2048" x="0" y="0" width="145.948" height="274.777" filterUnits="userSpaceOnUse" color-interpolation-filters="sRGB">
<feFlood flood-opacity="0" result="BackgroundImageFix"/>
<feColorMatrix in="SourceAlpha" type="matrix" values="0 0 0 0 0 0 0 0 0 0 0 0 0 0 0 0 0 0 127 0" result="hardAlpha"/>
<feOffset dy="4"/>
<feGaussianBlur stdDeviation="2"/>
<feComposite in2="hardAlpha" operator="out"/>
<feColorMatrix type="matrix" values="0 0 0 0 0 0 0 0 0 0 0 0 0 0 0 0 0 0 0.2 0"/>
<feBlend mode="normal" in2="BackgroundImageFix" result="effect1_dropShadow_1221_2048"/>
<feBlend mode="normal" in="SourceGraphic" in2="effect1_dropShadow_1221_2048" result="shape"/>
</filter>
</defs>
</svg>
