<svg width="9" height="10" viewBox="0 0 9 10" fill="none" xmlns="http://www.w3.org/2000/svg">
<path d="M7.03626 6.33443C6.92984 6.21884 6.80214 6.11977 6.68153 6.02069C6.49708 5.87207 6.30907 5.7152 6.18492 5.52118C6.09978 5.38907 6.02529 5.24459 5.95435 5.11249C5.90823 5.02166 5.86567 4.92259 5.8231 4.82764C5.7557 4.6749 5.68476 4.5139 5.59253 4.36941C5.45418 4.15474 5.26973 3.97723 5.0427 3.83274C4.93983 3.76669 4.81923 3.73366 4.7199 3.71302C4.64896 3.69651 4.57447 3.69238 4.49997 3.69238C4.42548 3.69238 4.35099 3.69651 4.28005 3.71302C4.17718 3.73366 4.06012 3.76669 3.95725 3.83274C3.73022 3.97723 3.54577 4.15887 3.40742 4.36941C3.31519 4.5139 3.24425 4.6749 3.17685 4.82764C3.13428 4.92259 3.09172 5.02166 3.0456 5.11249C2.97466 5.24872 2.90017 5.38907 2.81503 5.52118C2.69088 5.7152 2.50287 5.86795 2.31842 6.02069C2.19781 6.11977 2.07366 6.22297 1.96369 6.33443C1.56285 6.75964 1.39259 7.55225 1.56995 8.17561C1.66572 8.51 1.87856 8.77833 2.15525 8.91456C2.20136 8.94759 2.38582 9.06318 2.79375 9.06318C3.20168 9.06318 3.6983 8.95171 4.27295 8.72879C4.35099 8.71228 4.42548 8.70402 4.49997 8.70402C4.57447 8.70402 4.64896 8.71228 4.727 8.72879C5.30165 8.95171 5.80182 9.06318 6.2062 9.06318C6.61413 9.06318 6.79859 8.94759 6.84471 8.91456C7.12494 8.77833 7.33777 8.51 7.43 8.17561C7.60736 7.54813 7.4371 6.75551 7.03626 6.33443Z" fill="url(#paint0_linear_1221_1943)"/>
<path d="M5.68485 3.68838C5.70848 3.68838 5.73549 3.69242 5.7625 3.69242C6.0326 3.69242 6.29595 3.51467 6.50527 3.18744C6.70785 2.86829 6.8429 2.44007 6.88679 1.97952C6.93068 1.49474 6.86653 1.02208 6.70785 0.654455C6.54579 0.27067 6.29932 0.0403982 6.01572 0.00403955C5.99209 0.00403955 5.96508 0 5.93807 0C5.66797 0 5.40462 0.177753 5.1953 0.504981C4.99272 0.824129 4.85767 1.25235 4.81378 1.7129C4.76989 2.19768 4.83404 2.67034 4.99272 3.03797C5.15478 3.42175 5.40125 3.65202 5.68485 3.68838Z" fill="url(#paint1_linear_1221_1943)"/>
<path d="M8.97557 3.23652C8.90893 2.83483 8.72381 2.54449 8.44614 2.41722C8.34988 2.37347 8.24622 2.34961 8.13515 2.34961C7.88709 2.34961 7.62053 2.46893 7.37988 2.68767C7.13553 2.90642 6.9319 3.20868 6.79121 3.56265C6.62091 3.98821 6.56167 4.43366 6.62461 4.81944C6.69125 5.22114 6.87636 5.51147 7.15404 5.63874C7.2503 5.68249 7.35396 5.70635 7.46503 5.70635C7.71308 5.70635 7.97965 5.58704 8.2203 5.36829C8.46465 5.14955 8.66828 4.84728 8.80896 4.49331C8.97927 4.06775 9.03851 3.62231 8.97557 3.23652Z" fill="url(#paint2_linear_1221_1943)"/>
<path d="M2.49428 3.18744C2.70387 3.51467 2.96755 3.69242 3.23798 3.69242C3.26164 3.69242 3.28869 3.69242 3.31573 3.68838C3.59969 3.65202 3.84308 3.42175 4.00872 3.03797C4.1676 2.67034 4.22845 2.19768 4.18788 1.7129C4.14732 1.24831 4.0121 0.820089 3.80589 0.504981C3.59631 0.177753 3.33263 0 3.0622 0C3.03515 0 3.01149 -2.92715e-07 2.98445 0.00403955C2.70049 0.0403982 2.4571 0.27067 2.29146 0.654455C2.13258 1.02208 2.07173 1.49474 2.11229 1.97952C2.15286 2.44411 2.28808 2.87233 2.49428 3.18744Z" fill="url(#paint3_linear_1221_1943)"/>
<path d="M2.37601 4.81944C2.43898 4.43366 2.37601 3.98423 2.20933 3.56265C2.06858 3.20868 1.86486 2.90642 1.62039 2.68767C1.37963 2.46893 1.10924 2.34961 0.864779 2.34961C0.757363 2.34961 0.653651 2.37347 0.553643 2.41722C0.275844 2.54449 0.0906441 2.83483 0.0239722 3.23652C-0.0389956 3.62231 0.0239722 4.07173 0.190652 4.49331C0.331404 4.84728 0.535124 5.14955 0.779587 5.36829C1.02035 5.58704 1.29074 5.70635 1.5352 5.70635C1.64262 5.70635 1.74633 5.68249 1.84634 5.63874C2.12414 5.51147 2.30934 5.22114 2.37601 4.81944Z" fill="url(#paint4_linear_1221_1943)"/>
<defs>
<linearGradient id="paint0_linear_1221_1943" x1="2.63058" y1="5.24872" x2="6.92805" y2="8.94141" gradientUnits="userSpaceOnUse">
<stop stop-color="#EB6587"/>
<stop offset="1" stop-color="#F0833C"/>
</linearGradient>
<linearGradient id="paint1_linear_1221_1943" x1="4.95221" y1="0.775651" x2="7.06328" y2="2.53995" gradientUnits="userSpaceOnUse">
<stop stop-color="#EB6587"/>
<stop offset="1" stop-color="#F0833C"/>
</linearGradient>
<linearGradient id="paint2_linear_1221_1943" x1="6.96152" y1="3.12516" x2="8.76254" y2="4.8017" gradientUnits="userSpaceOnUse">
<stop stop-color="#EB6587"/>
<stop offset="1" stop-color="#F0833C"/>
</linearGradient>
<linearGradient id="paint3_linear_1221_1943" x1="2.17652" y1="0.682734" x2="4.46303" y2="2.59603" gradientUnits="userSpaceOnUse">
<stop stop-color="#EB6587"/>
<stop offset="1" stop-color="#F0833C"/>
</linearGradient>
<linearGradient id="paint4_linear_1221_1943" x1="0.0869401" y1="2.83085" x2="2.47119" y2="5.05132" gradientUnits="userSpaceOnUse">
<stop stop-color="#EB6587"/>
<stop offset="1" stop-color="#F0833C"/>
</linearGradient>
</defs>
</svg>
