<svg width="106" height="106" viewBox="0 0 106 106" fill="none" xmlns="http://www.w3.org/2000/svg">
<g filter="url(#filter0_d_1221_4563)">
<path d="M78.5103 0H27.4897C14.5167 0 4 10.5167 4 23.4897V74.5103C4 87.4833 14.5167 98 27.4897 98H78.5103C91.4833 98 102 87.4833 102 74.5103V23.4897C102 10.5167 91.4833 0 78.5103 0Z" fill="url(#paint0_linear_1221_4563)"/>
<path d="M42.5423 61.2779C39.2423 61.2779 35.9228 62.5203 33.3216 65.0051L25.6344 72.4011C24.8968 73.1193 24.7803 74.284 25.4015 75.1188L31.9434 84.1454C32.7004 85.1936 34.2534 85.2907 35.1269 84.3395L38.0776 81.2141C39.5529 79.6418 41.63 78.7488 43.7847 78.7488H60.8091C62.4591 78.7488 64.0315 78.1276 65.2351 77.0017L80.1241 62.9862C82.2206 61.0062 80.9783 57.2791 78.1053 57.2596C78.0859 57.2596 78.0664 57.2596 78.047 57.2596C76.6105 57.2596 75.0382 57.8032 73.3105 59.1038C71.0393 60.8121 67.6033 63.3939 65.0409 65.3351C64.3421 65.8592 64.0897 66.7521 64.3227 67.6063C64.478 68.1692 64.5945 68.8098 64.6333 69.5281C64.6721 69.9551 64.5168 70.3628 64.2256 70.6734C63.9345 70.984 63.5268 71.1587 63.0997 71.1587H48.366C48.1718 71.1587 47.9777 71.0616 47.8613 70.9257C47.7448 70.8093 47.6671 70.6346 47.6671 70.4404C47.6671 70.0522 47.9777 69.7416 48.366 69.7416H63.0997C63.158 69.7416 63.1968 69.7222 63.1968 69.7028C63.1968 69.7028 63.2356 69.6445 63.2356 69.6057C62.925 65.2768 60.1685 64.5392 58.8873 64.4421C58.8873 64.4421 58.8679 64.4421 58.8485 64.4421C58.8291 64.4421 58.7903 64.4421 58.7708 64.4421H58.732C58.7126 64.4421 58.6932 64.4421 58.6738 64.4421C58.6738 64.4421 58.6544 64.4421 58.635 64.4421C58.5961 64.4421 58.5767 64.4421 58.5379 64.4421H51.006C48.5795 62.3456 45.5706 61.2974 42.5229 61.2974L42.5423 61.2779Z" fill="url(#paint1_linear_1221_4563)"/>
<path d="M66.1479 44.5059C65.5655 43.9623 64.8667 43.4965 64.2067 43.0306C63.1972 42.3317 62.1684 41.5941 61.489 40.6817C61.0231 40.0605 60.6154 39.3811 60.2272 38.7599C59.9748 38.3328 59.7419 37.867 59.5089 37.4205C59.1401 36.7022 58.7519 35.9452 58.2472 35.2657C57.4901 34.2563 56.4807 33.4216 55.2383 32.7422C54.6753 32.4316 54.0153 32.2763 53.4718 32.1792C53.0835 32.1016 52.6759 32.0822 52.2682 32.0822C51.8606 32.0822 51.4529 32.1016 51.0647 32.1792C50.5017 32.2763 49.8611 32.4316 49.2982 32.7422C48.0558 33.4216 47.0464 34.2757 46.2893 35.2657C45.7846 35.9452 45.3964 36.7022 45.0275 37.4205C44.7946 37.867 44.5616 38.3328 44.3093 38.7599C43.921 39.4005 43.5134 40.0605 43.0475 40.6817C42.3681 41.5941 41.3392 42.3123 40.3298 43.0306C39.6698 43.4965 38.9904 43.9818 38.3886 44.5059C36.195 46.5053 35.2633 50.2324 36.2339 53.1637C36.758 54.736 37.9227 55.9978 39.4369 56.6384C39.6892 56.7937 40.6986 57.3373 42.931 57.3373C45.1634 57.3373 47.8811 56.8131 51.0259 55.7649C51.4529 55.6872 51.8606 55.6484 52.2682 55.6484C52.6759 55.6484 53.0835 55.6872 53.5106 55.7649C56.6554 56.8131 59.3925 57.3373 61.6054 57.3373C63.8378 57.3373 64.8473 56.7937 65.0996 56.6384C66.6332 55.9978 67.7979 54.736 68.3026 53.1637C69.2732 50.213 68.3414 46.4859 66.1479 44.5059Z" fill="url(#paint2_linear_1221_4563)"/>
<path d="M58.7519 30.7232C58.8878 30.7232 59.0431 30.7426 59.1984 30.7426C60.7513 30.7426 62.2655 29.8885 63.469 28.3161C64.6337 26.7826 65.4102 24.7249 65.6626 22.5119C65.9149 20.1825 65.5461 17.9113 64.6337 16.1448C63.702 14.3006 62.2849 13.1941 60.6543 13.0194C60.5184 13.0194 60.3631 13 60.2078 13C58.6548 13 57.1407 13.8541 55.9371 15.4265C54.7724 16.9601 53.9959 19.0177 53.7436 21.2307C53.4912 23.5602 53.86 25.8314 54.7724 27.5979C55.7042 29.442 57.1213 30.5485 58.7519 30.7232Z" fill="url(#paint3_linear_1221_4563)"/>
<path d="M76.941 28.9956C76.5916 27.035 75.621 25.6179 74.1651 24.9968C73.6604 24.7832 73.1168 24.6667 72.5345 24.6667C71.2339 24.6667 69.8362 25.2491 68.5744 26.3168C67.2932 27.3844 66.2256 28.8598 65.4879 30.5874C64.5949 32.6645 64.2843 34.8387 64.6144 36.7216C64.9638 38.6823 65.9344 40.0993 67.3903 40.7205C67.895 40.9341 68.4385 41.0505 69.0209 41.0505C70.3215 41.0505 71.7192 40.4682 72.981 39.4005C74.2622 38.3328 75.3298 36.8575 76.0675 35.1299C76.9604 33.0528 77.271 30.8786 76.941 28.9956Z" fill="url(#paint4_linear_1221_4563)"/>
<path d="M40.912 28.3161C42.1156 29.8885 43.6297 30.7426 45.1827 30.7426C45.3186 30.7426 45.4739 30.7426 45.6292 30.7232C47.2598 30.5485 48.6575 29.442 49.6087 27.5979C50.521 25.8314 50.8704 23.5602 50.6375 21.2307C50.4045 18.9983 49.6281 16.9407 48.4439 15.4265C47.2404 13.8541 45.7262 13 44.1733 13C44.018 13 43.8821 13 43.7268 13.0194C42.0962 13.1941 40.6985 14.3006 39.7473 16.1448C38.835 17.9113 38.4855 20.1825 38.7185 22.5119C38.9514 24.7443 39.7279 26.802 40.912 28.3161Z" fill="url(#paint5_linear_1221_4563)"/>
<path d="M39.7272 36.7216C40.0572 34.8387 39.7272 32.6451 38.8537 30.5874C38.116 28.8598 37.0483 27.3844 35.7671 26.3168C34.5054 25.2491 33.0883 24.6667 31.8071 24.6667C31.2441 24.6667 30.7006 24.7832 30.1765 24.9968C28.7206 25.6179 27.75 27.035 27.4005 28.9956C27.0705 30.8786 27.4005 33.0722 28.2741 35.1299C29.0117 36.8575 30.0794 38.3328 31.3606 39.4005C32.6224 40.4682 34.0395 41.0505 35.3207 41.0505C35.8836 41.0505 36.4272 40.9341 36.9513 40.7205C38.4072 40.0993 39.3778 38.6823 39.7272 36.7216Z" fill="url(#paint6_linear_1221_4563)"/>
</g>
<defs>
<filter id="filter0_d_1221_4563" x="0" y="0" width="106" height="106" filterUnits="userSpaceOnUse" color-interpolation-filters="sRGB">
<feFlood flood-opacity="0" result="BackgroundImageFix"/>
<feColorMatrix in="SourceAlpha" type="matrix" values="0 0 0 0 0 0 0 0 0 0 0 0 0 0 0 0 0 0 127 0" result="hardAlpha"/>
<feOffset dy="4"/>
<feGaussianBlur stdDeviation="2"/>
<feComposite in2="hardAlpha" operator="out"/>
<feColorMatrix type="matrix" values="0 0 0 0 0 0 0 0 0 0 0 0 0 0 0 0 0 0 0.25 0"/>
<feBlend mode="normal" in2="BackgroundImageFix" result="effect1_dropShadow_1221_4563"/>
<feBlend mode="normal" in="SourceGraphic" in2="effect1_dropShadow_1221_4563" result="shape"/>
</filter>
<linearGradient id="paint0_linear_1221_4563" x1="10.8869" y1="6.88694" x2="95.1131" y2="91.1131" gradientUnits="userSpaceOnUse">
<stop stop-color="#EB6587"/>
<stop offset="0.75" stop-color="#F0833C"/>
</linearGradient>
<linearGradient id="paint1_linear_1221_4563" x1="41.4941" y1="56.5414" x2="64.0121" y2="79.0788" gradientUnits="userSpaceOnUse">
<stop stop-color="white"/>
<stop offset="1" stop-color="white"/>
</linearGradient>
<linearGradient id="paint2_linear_1221_4563" x1="42.0381" y1="39.4005" x2="62.479" y2="59.8414" gradientUnits="userSpaceOnUse">
<stop stop-color="white"/>
<stop offset="1" stop-color="white"/>
</linearGradient>
<linearGradient id="paint3_linear_1221_4563" x1="54.5395" y1="16.7271" x2="64.8473" y2="27.0349" gradientUnits="userSpaceOnUse">
<stop stop-color="white"/>
<stop offset="1" stop-color="white"/>
</linearGradient>
<linearGradient id="paint4_linear_1221_4563" x1="66.3809" y1="28.4521" x2="75.1939" y2="37.2652" gradientUnits="userSpaceOnUse">
<stop stop-color="white"/>
<stop offset="1" stop-color="white"/>
</linearGradient>
<linearGradient id="paint5_linear_1221_4563" x1="39.0873" y1="16.2806" x2="50.2492" y2="27.4426" gradientUnits="userSpaceOnUse">
<stop stop-color="white"/>
<stop offset="1" stop-color="white"/>
</linearGradient>
<linearGradient id="paint6_linear_1221_4563" x1="27.7305" y1="27.0156" x2="39.3972" y2="38.6823" gradientUnits="userSpaceOnUse">
<stop stop-color="white"/>
<stop offset="1" stop-color="white"/>
</linearGradient>
</defs>
</svg>
