<svg width="24" height="25" viewBox="0 0 24 25" fill="none" xmlns="http://www.w3.org/2000/svg">
<path d="M4.3548 0.5C2.26072 0.5 0.563137 2.19758 0.563137 4.29167V19.463C0.563137 19.9462 0.954892 20.338 1.43814 20.338C1.92138 20.338 2.31314 19.9462 2.31314 19.463V4.29167C2.31314 3.16408 3.22722 2.25 4.3548 2.25H17.7715C18.899 2.25 19.8131 3.16408 19.8131 4.29167V10.1045C20.3718 9.88222 20.9723 9.79658 21.5631 9.84757V4.29167C21.5631 2.19758 19.8655 0.5 17.7715 0.5H4.3548ZM12.4601 18.6672L19.3463 11.7811C20.3877 10.7396 22.0761 10.7396 23.1175 11.7811C24.1588 12.8224 24.1588 14.5108 23.1175 15.5522L16.2313 22.4383C15.8298 22.8399 15.3268 23.1247 14.7759 23.2624L12.6401 23.7963C12.582 23.8109 12.5241 23.8212 12.467 23.8276C11.7775 24.0656 8.99066 24.4972 8.00129 23.7251C7.3311 23.2019 7.46448 22.1683 7.74742 21.6035C7.79268 21.5132 7.72423 21.3948 7.62441 21.4104C6.85351 21.5308 6.17407 21.9361 5.49353 22.3422C4.57894 22.8879 3.66236 23.4347 2.51914 23.2927C1.37712 23.1507 0.806376 22.4459 0.524019 21.8292C0.408624 21.5772 0.733541 21.361 0.976837 21.4939C1.52356 21.7922 2.26681 22.0724 2.87976 21.9368C3.3174 21.84 3.93421 21.4036 4.62541 20.9147C5.86823 20.0356 7.35152 18.9863 8.46613 19.4348C9.44496 19.8286 10.1686 20.7777 9.66756 21.9004C9.60608 22.0381 9.66803 22.2076 9.81503 22.2414C10.3089 22.3546 10.7227 22.3188 11.1367 22.1198L11.6361 20.1226C11.7739 19.5717 12.0586 19.0687 12.4601 18.6672Z" fill="white"/>
</svg>
