<svg width="564" height="564" viewBox="0 0 564 564" fill="none" xmlns="http://www.w3.org/2000/svg">
<g filter="url(#filter0_d_1221_4539)">
<path d="M305.963 153.847C333.637 126.174 378.505 126.174 406.179 153.847C433.853 181.519 433.853 226.385 406.179 254.058C378.505 281.73 333.637 281.73 305.963 254.058C278.289 226.385 278.289 181.519 305.963 153.847ZM376.113 183.91C365.044 172.841 347.098 172.841 336.027 183.91C324.958 194.979 324.958 212.925 336.027 223.994C347.098 235.064 365.044 235.064 376.113 223.994C387.185 212.925 387.185 194.979 376.113 183.91ZM545.523 65.7363C537.904 41.2244 518.706 22.0344 494.19 14.4263L475.422 8.60242C407.577 -12.4524 333.651 5.81309 283.417 56.0418L255.191 84.269C216.363 55.1132 161.003 58.1982 125.675 93.5239L90.4549 128.742C82.1524 137.044 82.1524 150.504 90.4549 158.805L135.552 203.9L130.455 208.996C111.083 228.367 111.083 259.775 130.455 279.145L144.496 293.184L104.938 315.746C99.1797 319.028 95.283 324.81 94.4006 331.38C93.5179 337.95 95.7507 344.554 100.438 349.243L210.677 459.475C215.361 464.158 221.961 466.391 228.526 465.515C235.094 464.637 240.873 460.748 244.164 455L266.781 415.463L280.875 429.552C300.246 448.926 331.653 448.926 351.024 429.552L356.036 424.544L401.094 469.6C409.396 477.899 422.858 477.899 431.16 469.6L466.38 434.379C501.693 399.068 504.791 343.738 475.669 304.918L503.955 276.631C554.206 226.384 572.466 152.425 551.374 84.5655L545.523 65.7363ZM481.587 55.0316C492.73 58.4898 501.457 67.2127 504.921 78.3545L510.772 97.1837C527.175 149.964 512.974 207.487 473.891 246.569L320.961 399.491C318.192 402.257 313.704 402.257 310.938 399.491L160.52 249.081C157.753 246.314 157.753 241.827 160.52 239.061L313.483 86.1051C352.552 47.0386 410.051 32.832 462.819 49.2077L481.587 55.0316ZM445.052 335.533C457.879 357.236 454.968 385.665 436.313 404.318L416.126 424.504L386.102 394.48L445.052 335.533ZM155.74 123.587C174.406 104.922 202.866 102.02 224.577 114.879L165.617 173.837L135.552 143.774L155.74 123.587ZM235.621 384.304L221.071 409.74L150.201 338.877L175.666 324.354L235.621 384.304ZM125.477 464.594C133.779 456.292 133.779 442.832 125.477 434.53C117.175 426.228 103.714 426.228 95.4122 434.53L25.2602 504.678C16.9581 512.98 16.9581 526.441 25.2602 534.743C33.5626 543.045 47.0231 543.045 55.3253 534.743L125.477 464.594ZM70.357 379.415C78.6591 387.717 78.6591 401.177 70.357 409.479L40.2919 439.541C31.9895 447.843 18.529 447.843 10.2268 439.541C1.92439 431.239 1.92439 417.778 10.2268 409.479L40.2919 379.415C48.594 371.113 62.0545 371.113 70.357 379.415ZM180.539 519.769C188.841 511.467 188.841 498.009 180.539 489.707C172.237 481.405 158.777 481.405 150.474 489.707L120.468 519.709C112.165 528.011 112.165 541.472 120.467 549.774C128.769 558.076 142.23 558.076 150.532 549.774L180.539 519.769Z" fill="white" fill-opacity="0.13" shape-rendering="crispEdges"/>
</g>
<defs>
<filter id="filter0_d_1221_4539" x="0" y="0" width="564" height="564" filterUnits="userSpaceOnUse" color-interpolation-filters="sRGB">
<feFlood flood-opacity="0" result="BackgroundImageFix"/>
<feColorMatrix in="SourceAlpha" type="matrix" values="0 0 0 0 0 0 0 0 0 0 0 0 0 0 0 0 0 0 127 0" result="hardAlpha"/>
<feOffset dy="4"/>
<feGaussianBlur stdDeviation="2"/>
<feComposite in2="hardAlpha" operator="out"/>
<feColorMatrix type="matrix" values="0 0 0 0 0 0 0 0 0 0 0 0 0 0 0 0 0 0 0.25 0"/>
<feBlend mode="normal" in2="BackgroundImageFix" result="effect1_dropShadow_1221_4539"/>
<feBlend mode="normal" in="SourceGraphic" in2="effect1_dropShadow_1221_4539" result="shape"/>
</filter>
</defs>
</svg>
