<svg width="84" height="135" viewBox="0 0 84 135" fill="none" xmlns="http://www.w3.org/2000/svg">
<path d="M26.1693 69.3254C21.418 69.3254 16.642 71.0979 12.9246 74.6676L0 87.0998L13.0477 105.071L20.6302 96.9964C22.2058 95.3224 24.3722 94.3869 26.6617 94.3869H53.5942C55.1944 94.3869 56.7207 93.7714 57.9024 92.6882L83.4316 68.6361C84.244 67.8729 84.1702 66.5928 83.3085 65.9034C81.4621 64.451 79.4434 63.4908 77.1539 63.4908C75.086 63.4908 72.8457 64.254 70.3593 66.125C66.5434 69.0054 60.4134 73.6336 56.7207 76.3909C57.3361 77.5972 57.7793 79.1481 57.9024 81.093C57.9516 81.6838 57.73 82.2993 57.3115 82.7424C56.893 83.1855 56.3022 83.4563 55.6867 83.4563H34.5149C34.2195 83.4563 33.9733 83.3086 33.7764 83.1117C33.6041 82.9393 33.5056 82.6932 33.5056 82.4224C33.5056 81.8808 33.9487 81.413 34.5149 81.413H55.6867C55.7606 81.413 55.8098 81.3638 55.8344 81.3392C55.859 81.3145 55.8837 81.2653 55.8837 81.1914C55.4405 74.963 51.477 73.929 49.6306 73.7813H49.5814C49.5568 73.7813 49.5075 73.7813 49.4829 73.7813C49.4829 73.7813 49.4337 73.7813 49.409 73.7813C49.3844 73.7813 49.3352 73.7813 49.3106 73.7813H49.2613C49.2121 73.7813 49.1629 73.7813 49.1382 73.7813H38.3308C34.8596 70.7779 30.5268 69.2762 26.1447 69.2762L26.1693 69.3254Z" fill="white"/>
<path d="M60.044 45.2485C59.207 44.4853 58.2222 43.796 57.2621 43.1313C55.8096 42.122 54.3325 41.088 53.3478 39.7586C52.6831 38.8723 52.0923 37.9122 51.5507 37.0014C51.1814 36.3859 50.8367 35.7212 50.5167 35.0811C49.9751 34.0472 49.4335 32.9639 48.6949 31.9792C47.6117 30.5513 46.1592 29.3204 44.3867 28.3357C43.5743 27.8926 42.6388 27.671 41.851 27.5233C41.2848 27.4248 40.694 27.3756 40.1277 27.4002C39.5369 27.4002 38.9707 27.4248 38.4045 27.5233C37.6167 27.671 36.6812 27.8679 35.8688 28.3357C34.0963 29.2958 32.6438 30.5267 31.5606 31.9792C30.822 32.9639 30.2804 34.0472 29.7388 35.0811C29.4188 35.7212 29.0741 36.3859 28.7048 37.0014C28.1632 37.9122 27.5478 38.8723 26.8831 39.7586C25.923 41.0634 24.4212 42.122 22.9688 43.1313C22.0086 43.796 21.0239 44.4853 20.1869 45.2485C17.0357 48.1042 15.7063 53.471 17.085 57.6808C17.8235 59.9457 19.4976 61.7428 21.6886 62.6783C22.0333 62.8999 23.4857 63.663 26.6861 63.663C29.8865 63.663 33.8008 62.8999 38.3306 61.3981C38.9461 61.2751 39.5369 61.2258 40.1031 61.2258C40.6693 61.2258 41.2848 61.2751 41.8757 61.3981C46.4054 62.8999 50.3197 63.663 53.5201 63.663C56.7205 63.663 58.173 62.8999 58.5177 62.6783C60.7087 61.7674 62.3827 59.9457 63.1213 57.6808C64.4999 53.4464 63.1705 48.1042 60.0194 45.2485H60.044Z" fill="white"/>
<path d="M49.4335 25.4554C49.6304 25.4554 49.852 25.48 50.0735 25.48C52.2892 25.48 54.4556 24.2491 56.2035 21.9842C57.8775 19.7932 59.01 16.839 59.33 13.6386C59.6993 10.2905 59.1577 7.04085 57.8529 4.50516C56.4989 1.87099 54.4802 0.270801 52.1415 0.0246177C51.9445 0.0246177 51.723 0 51.5014 0C49.2857 0 47.1193 1.23092 45.3714 3.49581C43.6974 5.68684 42.5649 8.64104 42.2449 11.8414C41.8756 15.1895 42.4172 18.4391 43.722 20.9748C45.076 23.609 47.0947 25.2092 49.4335 25.4554Z" fill="white"/>
<path d="M75.578 22.969C75.0857 20.1626 73.6824 18.1192 71.5899 17.2083C70.8513 16.8883 70.0881 16.7406 69.2511 16.7406C67.4047 16.7406 65.3614 17.5776 63.5396 19.104C61.7179 20.6549 60.1669 22.7721 59.1083 25.2339C57.8282 28.2128 57.3851 31.3393 57.8528 34.0473C58.3452 36.8538 59.7484 38.8971 61.841 39.808C62.5795 40.128 63.3427 40.2758 64.1797 40.2758C66.0261 40.2758 68.0694 39.4387 69.8912 37.9124C71.7129 36.3614 73.2639 34.2443 74.3225 31.7824C75.6026 28.8036 76.0458 25.6771 75.578 22.969Z" fill="white"/>
<path d="M23.8062 21.9842C25.5295 24.2491 27.7205 25.48 29.9362 25.48C30.1331 25.48 30.3547 25.48 30.5763 25.4554C32.915 25.2092 34.9337 23.609 36.2877 20.9748C37.5925 18.4145 38.1095 15.1895 37.7648 11.8414C37.4202 8.64104 36.3123 5.68684 34.6383 3.49581C32.915 1.23092 30.724 0 28.5083 0C28.3114 0 28.0898 -6.09875e-07 27.8682 0.0246177C25.5295 0.270801 23.5108 1.87099 22.1568 4.50516C20.852 7.06547 20.335 10.2905 20.6797 13.6386C21.0243 16.839 22.1322 19.7932 23.8062 21.9842Z" fill="white"/>
<path d="M22.1081 34.072C22.5758 31.3639 22.1081 28.2374 20.8525 25.2586C19.794 22.7968 18.243 20.655 16.4212 19.1286C14.5995 17.6023 12.5808 16.7653 10.7098 16.7653C9.89738 16.7653 9.10959 16.913 8.37104 17.233C6.30309 18.1193 4.87523 20.1626 4.38286 22.9937C3.91511 25.7017 4.38286 28.8283 5.6384 31.8071C6.69699 34.2689 8.22333 36.4107 10.0697 37.937C11.8915 39.4634 13.9102 40.3004 15.7812 40.3004C16.5936 40.3004 17.3814 40.1527 18.1199 39.8327C20.1878 38.9464 21.6157 36.9031 22.1081 34.072Z" fill="white"/>
<path d="M14.3265 121.818H16.5836L19.6064 129.196H19.7257L22.7484 121.818H25.0055V132H23.2356V125.005H23.1412L20.3272 131.97H19.0048L16.1909 124.99H16.0964V132H14.3265V121.818ZM26.318 121.818H28.4011L30.8919 126.322H30.9913L33.4821 121.818H35.5652L31.8613 128.202V132H30.0218V128.202L26.318 121.818ZM40.1552 132V130.852L45.3754 123.364H40.1254V121.818H47.6623V122.967L42.4471 130.454H47.6921V132H40.1552ZM58.0964 126.909C58.0964 128.006 57.8909 128.946 57.4799 129.728C57.0723 130.507 56.5154 131.103 55.8095 131.518C55.1068 131.932 54.3097 132.139 53.4181 132.139C52.5266 132.139 51.7278 131.932 51.0218 131.518C50.3192 131.1 49.7624 130.502 49.3514 129.723C48.9437 128.941 48.7399 128.003 48.7399 126.909C48.7399 125.812 48.9437 124.874 49.3514 124.095C49.7624 123.313 50.3192 122.715 51.0218 122.3C51.7278 121.886 52.5266 121.679 53.4181 121.679C54.3097 121.679 55.1068 121.886 55.8095 122.3C56.5154 122.715 57.0723 123.313 57.4799 124.095C57.8909 124.874 58.0964 125.812 58.0964 126.909ZM56.242 126.909C56.242 126.137 56.121 125.486 55.8791 124.955C55.6404 124.422 55.309 124.019 54.8848 123.747C54.4605 123.472 53.9717 123.335 53.4181 123.335C52.8646 123.335 52.3758 123.472 51.9515 123.747C51.5273 124.019 51.1942 124.422 50.9522 124.955C50.7136 125.486 50.5943 126.137 50.5943 126.909C50.5943 127.681 50.7136 128.334 50.9522 128.868C51.1942 129.398 51.5273 129.801 51.9515 130.076C52.3758 130.348 52.8646 130.484 53.4181 130.484C53.9717 130.484 54.4605 130.348 54.8848 130.076C55.309 129.801 55.6404 129.398 55.8791 128.868C56.121 128.334 56.242 127.681 56.242 126.909ZM68.9382 126.909C68.9382 128.006 68.7327 128.946 68.3217 129.728C67.9141 130.507 67.3572 131.103 66.6513 131.518C65.9486 131.932 65.1515 132.139 64.2599 132.139C63.3684 132.139 62.5696 131.932 61.8636 131.518C61.161 131.1 60.6042 130.502 60.1932 129.723C59.7855 128.941 59.5817 128.003 59.5817 126.909C59.5817 125.812 59.7855 124.874 60.1932 124.095C60.6042 123.313 61.161 122.715 61.8636 122.3C62.5696 121.886 63.3684 121.679 64.2599 121.679C65.1515 121.679 65.9486 121.886 66.6513 122.3C67.3572 122.715 67.9141 123.313 68.3217 124.095C68.7327 124.874 68.9382 125.812 68.9382 126.909ZM67.0838 126.909C67.0838 126.137 66.9628 125.486 66.7209 124.955C66.4822 124.422 66.1508 124.019 65.7266 123.747C65.3023 123.472 64.8134 123.335 64.2599 123.335C63.7064 123.335 63.2176 123.472 62.7933 123.747C62.3691 124.019 62.036 124.422 61.794 124.955C61.5554 125.486 61.4361 126.137 61.4361 126.909C61.4361 127.681 61.5554 128.334 61.794 128.868C62.036 129.398 62.3691 129.801 62.7933 130.076C63.2176 130.348 63.7064 130.484 64.2599 130.484C64.8134 130.484 65.3023 130.348 65.7266 130.076C66.1508 129.801 66.4822 129.398 66.7209 128.868C66.9628 128.334 67.0838 127.681 67.0838 126.909Z" fill="white"/>
</svg>
